# xmcd
#
# Track frame offsets: 
#        150
#        16299
#        30941
#        50291
#        63566
#        92379
#        110154
#        125449
#        142202
#        158927
#        187577
#
# Disc length: 3883 seconds
#
# Revision: 0
# Processed by: cddbd v1.5.2PL0 Copyright (c) Steve Scherf et al.
# Submitted via: ExactAudioCopyFreeDBPlugin 1.0
#
DISCID=8a0f290b
DTITLE=Контора Кука - Средняя Волга
DYEAR=2014
DGENRE=Rock
TTITLE0=Никола Зимний
TTITLE1=Пустынная песня
TTITLE2=Не в этой жизни
TTITLE3=Ильин день
TTITLE4=Песня звёздного неба
TTITLE5=Сегодня не высказать вслух
TTITLE6=Ночной поезд
TTITLE7=Белые пятна
TTITLE8=Руэйн-Варака
TTITLE9=Кострома
TTITLE10=Сегодня не высказать вслух
EXTD=
EXTT0=
EXTT1=
EXTT2=
EXTT3=
EXTT4=
EXTT5=
EXTT6=
EXTT7=
EXTT8=
EXTT9=
EXTT10=
PLAYORDER=
